<svg width="128" height="128" viewBox="0 0 128 128" xmlns="http://www.w3.org/2000/svg">
  <defs>
    <linearGradient id="grad1" x1="0%" y1="0%" x2="100%" y2="100%">
      <stop offset="0%" style="stop-color:#667eea;stop-opacity:1" />
      <stop offset="100%" style="stop-color:#764ba2;stop-opacity:1" />
    </linearGradient>
  </defs>
  
  <!-- Background circle -->
  <circle cx="64" cy="64" r="60" fill="url(#grad1)" stroke="#fff" stroke-width="4"/>
  
  <!-- Lock body -->
  <rect x="40" y="50" width="48" height="32" rx="4" fill="#fff" opacity="0.9"/>
  
  <!-- Lock shackle -->
  <path d="M 52 50 L 52 40 Q 52 32 60 32 Q 68 32 68 40 L 68 50" 
        stroke="#fff" stroke-width="4" fill="none" stroke-linecap="round"/>
  
  <!-- Share arrows -->
  <g transform="translate(64, 64)">
    <!-- Arrow 1 -->
    <path d="M -20 -15 L -10 -15 L -10 -25 L -5 -20 L -10 -15 L -10 -5" 
          stroke="#fff" stroke-width="3" fill="none" stroke-linecap="round" stroke-linejoin="round"/>
    
    <!-- Arrow 2 -->
    <path d="M 20 -15 L 10 -15 L 10 -25 L 15 -20 L 10 -15 L 10 -5" 
          stroke="#fff" stroke-width="3" fill="none" stroke-linecap="round" stroke-linejoin="round"/>
    
    <!-- Arrow 3 -->
    <path d="M 0 20 L 0 10 L -10 10 L -5 15 L 0 10 L 10 10" 
          stroke="#fff" stroke-width="3" fill="none" stroke-linecap="round" stroke-linejoin="round"/>
  </g>
</svg> 